<svg id="visual" viewBox="0 0 900 600" width="900" height="600" xmlns="http://www.w3.org/2000/svg" xmlns:xlink="http://www.w3.org/1999/xlink" version="1.1"><path d="M872 600L839 583.3C806 566.7 740 533.3 720.5 500C701 466.7 728 433.3 749 400C770 366.7 785 333.3 800 300C815 266.7 830 233.3 836 200C842 166.7 839 133.3 831.5 100C824 66.7 812 33.3 806 16.7L800 0L900 0L900 16.7C900 33.3 900 66.7 900 100C900 133.3 900 166.7 900 200C900 233.3 900 266.7 900 300C900 333.3 900 366.7 900 400C900 433.3 900 466.7 900 500C900 533.3 900 566.7 900 583.3L900 600Z" fill="#ccd8f8"></path><path d="M854 600L821 583.3C788 566.7 722 533.3 702.5 500C683 466.7 710 433.3 728 400C746 366.7 755 333.3 761 300C767 266.7 770 233.3 771.5 200C773 166.7 773 133.3 773 100C773 66.7 773 33.3 773 16.7L773 0L801 0L807 16.7C813 33.3 825 66.7 832.5 100C840 133.3 843 166.7 837 200C831 233.3 816 266.7 801 300C786 333.3 771 366.7 750 400C729 433.3 702 466.7 721.5 500C741 533.3 807 566.7 840 583.3L873 600Z" fill="#d6e0f8"></path><path d="M800 600L773 583.3C746 566.7 692 533.3 680 500C668 466.7 698 433.3 711.5 400C725 366.7 722 333.3 720.5 300C719 266.7 719 233.3 717.5 200C716 166.7 713 133.3 713 100C713 66.7 716 33.3 717.5 16.7L719 0L774 0L774 16.7C774 33.3 774 66.7 774 100C774 133.3 774 166.7 772.5 200C771 233.3 768 266.7 762 300C756 333.3 747 366.7 729 400C711 433.3 684 466.7 703.5 500C723 533.3 789 566.7 822 583.3L855 600Z" fill="#e1e7f9"></path><path d="M773 600L744.5 583.3C716 566.7 659 533.3 642.5 500C626 466.7 650 433.3 656 400C662 366.7 650 333.3 653 300C656 266.7 674 233.3 672.5 200C671 166.7 650 133.3 641 100C632 66.7 635 33.3 636.5 16.7L638 0L720 0L718.5 16.7C717 33.3 714 66.7 714 100C714 133.3 717 166.7 718.5 200C720 233.3 720 266.7 721.5 300C723 333.3 726 366.7 712.5 400C699 433.3 669 466.7 681 500C693 533.3 747 566.7 774 583.3L801 600Z" fill="#ebeff9"></path><path d="M683 600L660.5 583.3C638 566.7 593 533.3 585.5 500C578 466.7 608 433.3 614 400C620 366.7 602 333.3 602 300C602 266.7 620 233.3 614 200C608 166.7 578 133.3 564.5 100C551 66.7 554 33.3 555.5 16.7L557 0L639 0L637.5 16.7C636 33.3 633 66.7 642 100C651 133.3 672 166.7 673.5 200C675 233.3 657 266.7 654 300C651 333.3 663 366.7 657 400C651 433.3 627 466.7 643.5 500C660 533.3 717 566.7 745.5 583.3L774 600Z" fill="#f6f7fa"></path><path d="M620 600L600.5 583.3C581 566.7 542 533.3 539 500C536 466.7 569 433.3 581 400C593 366.7 584 333.3 578 300C572 266.7 569 233.3 561.5 200C554 166.7 542 133.3 536 100C530 66.7 530 33.3 530 16.7L530 0L558 0L556.5 16.7C555 33.3 552 66.7 565.5 100C579 133.3 609 166.7 615 200C621 233.3 603 266.7 603 300C603 333.3 621 366.7 615 400C609 433.3 579 466.7 586.5 500C594 533.3 639 566.7 661.5 583.3L684 600Z" fill="#fafafa"></path><path d="M602 600L582.5 583.3C563 566.7 524 533.3 519.5 500C515 466.7 545 433.3 551 400C557 366.7 539 333.3 533 300C527 266.7 533 233.3 531.5 200C530 166.7 521 133.3 510.5 100C500 66.7 488 33.3 482 16.7L476 0L531 0L531 16.7C531 33.3 531 66.7 537 100C543 133.3 555 166.7 562.5 200C570 233.3 573 266.7 579 300C585 333.3 594 366.7 582 400C570 433.3 537 466.7 540 500C543 533.3 582 566.7 601.5 583.3L621 600Z" fill="#fafafa"></path><path d="M359 600L336.5 583.3C314 566.7 269 533.3 243.5 500C218 466.7 212 433.3 227 400C242 366.7 278 333.3 300.5 300C323 266.7 332 233.3 348.5 200C365 166.7 389 133.3 395 100C401 66.7 389 33.3 383 16.7L377 0L477 0L483 16.7C489 33.3 501 66.7 511.5 100C522 133.3 531 166.7 532.5 200C534 233.3 528 266.7 534 300C540 333.3 558 366.7 552 400C546 433.3 516 466.7 520.5 500C525 533.3 564 566.7 583.5 583.3L603 600Z" fill="#f6f7fa"></path><path d="M314 600L291.5 583.3C269 566.7 224 533.3 201.5 500C179 466.7 179 433.3 182 400C185 366.7 191 333.3 206 300C221 266.7 245 233.3 267.5 200C290 166.7 311 133.3 314 100C317 66.7 302 33.3 294.5 16.7L287 0L378 0L384 16.7C390 33.3 402 66.7 396 100C390 133.3 366 166.7 349.5 200C333 233.3 324 266.7 301.5 300C279 333.3 243 366.7 228 400C213 433.3 219 466.7 244.5 500C270 533.3 315 566.7 337.5 583.3L360 600Z" fill="#ebeff9"></path><path d="M197 600L188 583.3C179 566.7 161 533.3 150.5 500C140 466.7 137 433.3 134 400C131 366.7 128 333.3 135.5 300C143 266.7 161 233.3 182 200C203 166.7 227 133.3 242 100C257 66.7 263 33.3 266 16.7L269 0L288 0L295.5 16.7C303 33.3 318 66.7 315 100C312 133.3 291 166.7 268.5 200C246 233.3 222 266.7 207 300C192 333.3 186 366.7 183 400C180 433.3 180 466.7 202.5 500C225 533.3 270 566.7 292.5 583.3L315 600Z" fill="#e1e7f9"></path><path d="M26 600L26 583.3C26 566.7 26 533.3 30.5 500C35 466.7 44 433.3 44 400C44 366.7 35 333.3 29 300C23 266.7 20 233.3 23 200C26 166.7 35 133.3 39.5 100C44 66.7 44 33.3 44 16.7L44 0L270 0L267 16.7C264 33.3 258 66.7 243 100C228 133.3 204 166.7 183 200C162 233.3 144 266.7 136.5 300C129 333.3 132 366.7 135 400C138 433.3 141 466.7 151.5 500C162 533.3 180 566.7 189 583.3L198 600Z" fill="#d6e0f8"></path><path d="M0 600L0 583.3C0 566.7 0 533.3 0 500C0 466.7 0 433.3 0 400C0 366.7 0 333.3 0 300C0 266.7 0 233.3 0 200C0 166.7 0 133.3 0 100C0 66.7 0 33.3 0 16.7L0 0L45 0L45 16.7C45 33.3 45 66.7 40.5 100C36 133.3 27 166.7 24 200C21 233.3 24 266.7 30 300C36 333.3 45 366.7 45 400C45 433.3 36 466.7 31.5 500C27 533.3 27 566.7 27 583.3L27 600Z" fill="#ccd8f8"></path></svg>