<svg id="visual" viewBox="0 0 900 65" width="900" height="65" xmlns="http://www.w3.org/2000/svg" xmlns:xlink="http://www.w3.org/1999/xlink" version="1.1"><rect x="0" y="0" width="900" height="65" fill="#fffdda"></rect><path d="M0 46L18.8 45C37.7 44 75.3 42 112.8 41.3C150.3 40.7 187.7 41.3 225.2 42.3C262.7 43.3 300.3 44.7 337.8 44.7C375.3 44.7 412.7 43.3 450.2 43.3C487.7 43.3 525.3 44.7 562.8 45.5C600.3 46.3 637.7 46.7 675.2 46C712.7 45.3 750.3 43.7 787.8 43.3C825.3 43 862.7 44 881.3 44.5L900 45L900 66L881.3 66C862.7 66 825.3 66 787.8 66C750.3 66 712.7 66 675.2 66C637.7 66 600.3 66 562.8 66C525.3 66 487.7 66 450.2 66C412.7 66 375.3 66 337.8 66C300.3 66 262.7 66 225.2 66C187.7 66 150.3 66 112.8 66C75.3 66 37.7 66 18.8 66L0 66Z" fill="#fcfcff"></path><path d="M0 43L18.8 44C37.7 45 75.3 47 112.8 46.8C150.3 46.7 187.7 44.3 225.2 44.7C262.7 45 300.3 48 337.8 48.3C375.3 48.7 412.7 46.3 450.2 46.2C487.7 46 525.3 48 562.8 48C600.3 48 637.7 46 675.2 46.2C712.7 46.3 750.3 48.7 787.8 49.7C825.3 50.7 862.7 50.3 881.3 50.2L900 50L900 66L881.3 66C862.7 66 825.3 66 787.8 66C750.3 66 712.7 66 675.2 66C637.7 66 600.3 66 562.8 66C525.3 66 487.7 66 450.2 66C412.7 66 375.3 66 337.8 66C300.3 66 262.7 66 225.2 66C187.7 66 150.3 66 112.8 66C75.3 66 37.7 66 18.8 66L0 66Z" fill="#e2e4ff"></path><path d="M0 47L18.8 47.8C37.7 48.7 75.3 50.3 112.8 50.5C150.3 50.7 187.7 49.3 225.2 49C262.7 48.7 300.3 49.3 337.8 49.8C375.3 50.3 412.7 50.7 450.2 50.2C487.7 49.7 525.3 48.3 562.8 48.2C600.3 48 637.7 49 675.2 49.7C712.7 50.3 750.3 50.7 787.8 51.2C825.3 51.7 862.7 52.3 881.3 52.7L900 53L900 66L881.3 66C862.7 66 825.3 66 787.8 66C750.3 66 712.7 66 675.2 66C637.7 66 600.3 66 562.8 66C525.3 66 487.7 66 450.2 66C412.7 66 375.3 66 337.8 66C300.3 66 262.7 66 225.2 66C187.7 66 150.3 66 112.8 66C75.3 66 37.7 66 18.8 66L0 66Z" fill="#c3ceff"></path><path d="M0 55L18.8 55.2C37.7 55.3 75.3 55.7 112.8 55.5C150.3 55.3 187.7 54.7 225.2 54.2C262.7 53.7 300.3 53.3 337.8 53.2C375.3 53 412.7 53 450.2 53.3C487.7 53.7 525.3 54.3 562.8 55C600.3 55.7 637.7 56.3 675.2 56.8C712.7 57.3 750.3 57.7 787.8 57C825.3 56.3 862.7 54.7 881.3 53.8L900 53L900 66L881.3 66C862.7 66 825.3 66 787.8 66C750.3 66 712.7 66 675.2 66C637.7 66 600.3 66 562.8 66C525.3 66 487.7 66 450.2 66C412.7 66 375.3 66 337.8 66C300.3 66 262.7 66 225.2 66C187.7 66 150.3 66 112.8 66C75.3 66 37.7 66 18.8 66L0 66Z" fill="#9eb9ff"></path><path d="M0 56L18.8 56.7C37.7 57.3 75.3 58.7 112.8 58.8C150.3 59 187.7 58 225.2 57.5C262.7 57 300.3 57 337.8 57.2C375.3 57.3 412.7 57.7 450.2 58C487.7 58.3 525.3 58.7 562.8 59C600.3 59.3 637.7 59.7 675.2 60C712.7 60.3 750.3 60.7 787.8 60.2C825.3 59.7 862.7 58.3 881.3 57.7L900 57L900 66L881.3 66C862.7 66 825.3 66 787.8 66C750.3 66 712.7 66 675.2 66C637.7 66 600.3 66 562.8 66C525.3 66 487.7 66 450.2 66C412.7 66 375.3 66 337.8 66C300.3 66 262.7 66 225.2 66C187.7 66 150.3 66 112.8 66C75.3 66 37.7 66 18.8 66L0 66Z" fill="#6ea6ff"></path></svg>